<?xml version="1.0" encoding="utf-8"?>
<!-- Generator: Adobe Illustrator 21.0.0, SVG Export Plug-In . SVG Version: 6.00 Build 0)  -->
<svg version="1.1" id="Layer_1" xmlns="http://www.w3.org/2000/svg" xmlns:xlink="http://www.w3.org/1999/xlink" x="0px" y="0px"
	 viewBox="0 0 14 52" style="enable-background:new 0 0 14 52;" xml:space="preserve">
<style type="text/css">
	.st0{fill:#FC5424;}
</style>
<title>upperquad-logotype</title>
<g>
	<path class="st0" d="M3.7,51.4v-2.3h0.9c-0.5-0.4-1-1-1-2c0-1.5,1.3-2.9,3.4-2.9h0c2.1,0,3.4,1.3,3.4,2.9c0,1-0.4,1.6-0.9,2h2.7
		v2.3H3.7z M7,46.5L7,46.5c-0.9,0-1.5,0.6-1.5,1.3c0,0.7,0.6,1.3,1.5,1.3h0c0.9,0,1.5-0.6,1.5-1.3C8.4,47.1,7.8,46.5,7,46.5z"/>
	<path class="st0" d="M1.4,43.8v-2.4h1.7v2.4H1.4z M3.7,43.7v-2.3h6.5v2.3H3.7z"/>
	<path class="st0" d="M3.7,40.6v-2.3h0.9c-0.5-0.4-1-1-1-1.9c0-0.9,0.4-1.5,1.1-1.9C4,34,3.6,33.3,3.6,32.4c0-1.4,0.9-2.2,2.4-2.2
		h4.3v2.3H6.7c-0.7,0-1.1,0.3-1.1,0.9c0,0.5,0.4,0.9,1.1,0.9h3.5v2.3H6.7c-0.7,0-1.1,0.3-1.1,0.9c0,0.5,0.4,0.9,1.1,0.9h3.5v2.3H3.7
		z"/>
	<path class="st0" d="M7,29.7L7,29.7c-1.9,0-3.4-1.4-3.4-3.5c0-1.3,0.6-2.2,1.5-2.8L6.2,25c-0.4,0.3-0.7,0.7-0.7,1.2
		c0,0.7,0.6,1.3,1.4,1.3h0c0.8,0,1.5-0.5,1.5-1.3c0-0.5-0.3-0.9-0.7-1.2l1.1-1.5c0.9,0.6,1.5,1.5,1.5,2.9C10.4,28.3,8.8,29.7,7,29.7
		z"/>
	<path class="st0" d="M1.4,23v-2.3h8.8V23H1.4z"/>
	<path class="st0" d="M1.4,19.9v-2.4h1.7v2.4H1.4z M3.7,19.9v-2.3h6.5v2.3H3.7z"/>
	<path class="st0" d="M7,17.1L7,17.1c-1.9,0-3.4-1.4-3.4-3.5c0-1.3,0.6-2.2,1.5-2.8l1.2,1.5c-0.4,0.3-0.7,0.7-0.7,1.2
		c0,0.7,0.6,1.3,1.4,1.3h0c0.8,0,1.5-0.5,1.5-1.3c0-0.5-0.3-0.9-0.7-1.2l1.1-1.5c0.9,0.6,1.5,1.5,1.5,2.9C10.4,15.6,8.8,17.1,7,17.1
		z"/>
	<path class="st0" d="M1.4,10.5V8.2h4.4L3.7,6.4V3.8l2.6,2.3l3.9-2.3v2.5L8,7.6l0.7,0.6h1.5v2.3H1.4z"/>
	<path class="st0" d="M3.8,4.2L3.8,4.2c-1.2,0-2.1-0.9-2.1-2.1C1.7,0.9,2.6,0,3.8,0h0c1.1,0,2.1,0.9,2.1,2.1
		C5.9,3.3,4.9,4.2,3.8,4.2z M3.8,0.2L3.8,0.2c-1,0-1.9,0.8-1.9,1.8c0,1,0.9,1.8,1.9,1.8h0c1,0,1.9-0.8,1.9-1.8
		C5.7,1,4.8,0.2,3.8,0.2z M2.6,3V2c0-0.6,0.3-1,0.8-1C3.7,1,4,1.2,4.1,1.4l0.8-0.5v0.8L4.2,2.1v0.2h0.6V3H2.6z M3.7,2
		c0-0.2-0.1-0.3-0.2-0.3C3.3,1.7,3.2,1.8,3.2,2v0.4h0.5V2z"/>
</g>
</svg>
