<?xml version="1.0" encoding="utf-8"?>
<!-- Generator: Adobe Illustrator 21.0.0, SVG Export Plug-In . SVG Version: 6.00 Build 0)  -->
<svg version="1.1" id="Layer_1" xmlns="http://www.w3.org/2000/svg" xmlns:xlink="http://www.w3.org/1999/xlink" x="0px" y="0px"
	 viewBox="0 0 30.6 34.6" style="enable-background:new 0 0 30.6 34.6;" xml:space="preserve">
<style type="text/css">
	.st0{display:none;}
	.st1{display:inline;}
	.st2{fill:#FC5424;}
</style>
<title>uq-logo</title>
<g class="st0">
	<path class="st1" d="M4.9,28.1c-0.9-1.3-1.5-3-1.5-4.9v-0.8V9.4H0V8.2h12.7v1.1H8.3v14c0,1.5,0,4.4,0.1,5.3c0.2,1.4,0.7,2.3,1.6,3
		C8.2,30.9,5.9,29.5,4.9,28.1"/>
	<path class="st1" d="M15.5,31c-2.8,0-4.4-1.5-4.4-3.3c0-1.5,1-2.5,2.4-2.5s2.5,0.9,3.4,3.1c0.4,1,0.7,1.6,0.8,1.9
		c0,0.1,0.1,0.2,0.2,0.4C17.7,30.6,16.6,31,15.5,31L15.5,31z M30.6,9.4V8.2H17.9v1.1h4.5v14.2c0,2.2-0.2,3.2-1,4.6
		c0,0,0,0.1-0.1,0.1c-1.8-3.1-3.7-4.4-6.4-4.4S10,25.6,10,27.8c0,0.6,0,1.2,0.5,2.1c1.1,2.1,4.1,2.6,5.1,2.6c1.1,0,2.2-0.1,3.3-0.3
		c1.5,1.5,3.3,2.4,5.3,2.4c1.1,0,2.2-0.3,3.1-0.8c2.3-1.2,3.2-2.9,3.2-6.2v-0.3h-0.8v0.3c0,1.3-0.2,2.4-0.5,3.2
		c-0.5,1.2-2,2.3-3.3,2.3s-2.6-0.8-3.2-2.1c1.2-0.6,2.3-1.5,3-2.4c0.9-1.3,1.5-3,1.5-4.9v-0.8V9.4H30.6L30.6,9.4z"/>
</g>
<g>
	<path class="st2" d="M2.1,41.4V0.5H9v2C11.2,0.7,13.7,0,16.4,0c7.9,0,14.2,6.2,14.2,13.9c0,7.7-6.3,14-14.2,14
		c-2.8,0-5.3-0.7-7.4-2.5v16H2.1z M9,14.3c0.2,3.8,3.4,7,7.4,7c4,0,7.4-3.4,7.4-7.4c0-3.9-3.3-7.3-7.4-7.3c-4,0-7.3,3.3-7.4,7V14.3z
		"/>
</g>
</svg>
